<svg width="1320" height="135" viewBox="0 0 1320 135" fill="none" xmlns="http://www.w3.org/2000/svg">
<path d="M1147.7 29.4827C1147.7 45.674 1134.4 58.9654 1118.19 58.9654C1101.98 58.9654 1088.68 45.674 1088.68 29.4827C1088.68 13.2914 1101.98 0 1118.19 0C1134.4 0 1147.7 13.2914 1147.7 29.4827Z" fill="#F4EBFF"/>
<path d="M1335.17 70.0817C1333.48 70.0817 1331.78 70.8067 1330.57 71.7733C1328.64 67.6651 1322.59 64.7651 1315.57 64.7651C1311.22 64.7651 1307.11 65.9734 1304.21 67.6651C1302.27 64.0401 1298.64 61.6235 1294.29 61.6235C1291.14 61.6235 1288.48 62.8318 1286.55 64.7651C1282.44 58.7236 1274.21 54.6153 1264.53 54.6153C1257.76 54.6153 1251.71 56.5486 1247.36 59.9319C1243.73 50.0238 1234.06 42.7739 1222.93 42.7739C1211.8 42.7739 1202.13 49.7821 1198.5 59.6902C1196.56 58.7236 1194.63 58.2403 1192.45 58.2403C1184.47 58.2403 1177.94 64.7651 1177.94 72.7399C1177.94 74.1899 1178.18 75.3982 1178.42 76.6065H1198.01H1206.48H1240.83H1248.09H1284.13H1288.97H1300.82H1305.42H1329.12H1331.54H1342.67V76.3649C1341.94 72.9816 1339.04 70.0817 1335.17 70.0817Z" fill="#F4EBFF"/>
<path d="M1021.19 61.8653C1019.01 61.8653 1016.84 62.8319 1015.38 64.0402C1014.17 54.3738 1005.95 46.6406 995.791 46.6406C987.082 46.6406 979.826 52.4405 977.165 60.1737C974.746 56.0654 970.392 53.4071 965.312 53.4071C958.781 53.4071 953.459 57.9987 952.007 63.7986C950.556 62.5903 948.863 61.8653 946.928 61.8653C942.332 61.8653 938.703 65.4902 938.703 70.0818C938.703 71.0484 938.945 72.0151 939.187 72.74H953.217H954.91H977.648H978.132H1013.21H1014.66H1029.9C1030.14 72.0151 1030.38 71.0484 1030.38 70.0818C1029.9 65.7319 1026.03 61.8653 1021.19 61.8653Z" fill="#F4EBFF"/>
<path d="M83.3569 28.0325C81.1798 28.0325 79.0027 28.9992 77.5513 30.2075C76.3419 20.541 68.1174 12.8079 57.9577 12.8079C49.2494 12.8079 41.9925 18.6077 39.3317 26.3409C36.9127 22.2326 32.5586 19.5744 27.4787 19.5744C20.9475 19.5744 15.6258 24.1659 14.1744 29.9658C12.7231 28.7575 11.0298 28.0325 9.09461 28.0325C4.49857 28.0325 0.870117 31.6574 0.870117 36.249C0.870117 37.2157 1.11202 38.1823 1.35391 38.9073H15.3839H17.0772H39.8155H40.2993H75.3743H76.8257H92.0651C92.307 38.1823 92.5489 37.2157 92.5489 36.249C92.0651 31.8991 88.1948 28.0325 83.3569 28.0325Z" fill="#F4EBFF"/>
<path d="M454.668 77.3314C452.732 77.3314 450.797 78.0564 449.588 79.2647C447.411 74.6731 440.637 71.5315 432.413 71.5315C427.333 71.5315 422.737 72.7398 419.593 74.9148C417.415 70.8065 413.303 67.9066 408.223 67.9066C404.837 67.9066 401.692 69.3566 399.273 71.5315C394.677 64.765 385.243 60.1735 374.358 60.1735C366.859 60.1735 359.844 62.3484 354.764 66.215C350.652 54.8569 339.767 46.8821 326.946 46.8821C314.368 46.8821 303.482 54.8569 299.128 65.9733C296.951 65.0067 294.774 64.5234 292.113 64.5234C282.921 64.5234 275.664 72.0149 275.664 80.9563C275.664 82.4063 275.906 83.8563 276.39 85.3062H298.644H308.078H347.024H355.248H395.887H401.208H414.513H419.593H446.443H449.104H461.683V85.0646C462.166 80.7147 458.78 77.3314 454.668 77.3314Z" fill="#F4EBFF"/>
<path d="M838.799 126.147C836.622 126.147 834.687 127.114 833.235 128.322C830.816 123.489 823.56 119.864 814.851 119.864C809.288 119.864 804.45 121.314 801.063 123.489C798.644 119.139 794.048 115.997 788.726 115.997C785.098 115.997 781.711 117.447 779.051 119.864C774.213 112.614 764.053 107.539 752.2 107.539C743.976 107.539 736.477 109.956 731.155 114.064C726.559 101.739 714.948 93.0397 701.16 93.0397C687.372 93.0397 675.761 101.739 671.165 113.823C668.988 112.856 666.327 112.131 663.666 112.131C653.748 112.131 645.766 120.106 645.766 130.014C645.766 131.705 646.007 133.155 646.491 134.847H670.439H680.599H722.689H731.397H775.422H781.228H795.741H801.305H830.333H833.235H846.782V134.605C847.024 129.772 843.395 126.147 838.799 126.147Z" fill="#F4EBFF"/>
<path d="M682.049 35.7658C680.356 35.7658 678.904 36.4907 677.695 37.4574C675.759 33.5908 670.196 30.9325 663.423 30.9325C659.311 30.9325 655.44 31.8992 652.779 33.8325C651.086 30.4492 647.458 28.0326 643.345 28.0326C640.443 28.0326 637.782 29.2409 635.847 30.9325C631.976 25.3743 624.235 21.2661 615.043 21.2661C608.754 21.2661 602.949 23.1994 598.594 26.341C595.208 16.9162 586.016 10.1497 575.372 10.1497C564.729 10.1497 555.779 16.9162 552.15 26.341C550.457 25.616 548.522 25.1327 546.345 25.1327C538.604 25.1327 532.557 31.4159 532.557 38.9074C532.557 40.1157 532.799 41.324 533.04 42.5323H551.667H559.649H592.305H599.078H633.186H637.782H648.909H653.263H675.76H677.937H688.338V42.2906C688.338 38.6657 685.435 35.7658 682.049 35.7658Z" fill="#F4EBFF"/>
</svg>
