<svg width="968" height="395" viewBox="0 0 968 395" fill="none" xmlns="http://www.w3.org/2000/svg">
<path opacity="0.2" d="M989.785 389.071C989.785 392.212 986.398 394.871 982.044 394.871H921.812C917.7 394.871 914.071 392.212 914.071 389.071C914.071 385.929 917.458 383.271 921.812 383.271H982.044C986.398 383.271 989.785 385.929 989.785 389.071Z" fill="#9892A2"/>
<path d="M954.951 320.439H948.42V111.402C948.42 89.4107 939.954 68.8695 924.473 53.4032L904.153 32.862L908.749 28.2704L929.069 48.8116C945.759 65.4862 954.951 87.7191 954.951 111.402V320.439Z" fill="#A59DAF"/>
<path d="M954.951 320.439H948.42V111.402C948.42 87.7191 957.612 65.4862 974.303 48.8116L994.622 28.2704L999.218 32.862L978.899 53.4032C963.418 68.8695 954.951 89.4107 954.951 111.402V320.439Z" fill="#A59DAF"/>
<path d="M914.313 31.4121L906.814 38.9036C904.395 41.3202 900.766 41.3202 898.347 38.9036L877.302 17.8791C874.884 15.4624 874.884 11.8375 877.302 9.4209L884.801 1.9294C887.22 -0.48721 890.849 -0.48721 893.268 1.9294L914.313 22.9539C916.731 25.1289 916.731 28.9955 914.313 31.4121Z" fill="#A59DAF"/>
<path d="M907.298 32.1373L902.944 36.4872C901.492 37.9372 899.074 37.4539 897.138 35.5206L880.689 19.0876C878.996 17.396 878.512 14.7377 879.722 13.2877L884.076 8.9378C885.527 7.48783 887.946 7.97116 889.881 9.90445L906.33 26.3374C908.266 28.0291 908.507 30.6873 907.298 32.1373Z" fill="white"/>
<path d="M964.385 378.921H939.228L943.098 291.198C943.34 288.299 945.517 286.124 948.42 286.124H955.193C958.096 286.124 960.273 288.299 960.515 291.198L964.385 378.921Z" fill="#A59DAF"/>
<path d="M971.885 387.863H931.488V383.996C931.488 381.096 933.907 378.68 936.81 378.68H966.805C969.708 378.68 972.127 381.096 972.127 383.996V387.863H971.885Z" fill="#A59DAF"/>
<path opacity="0.2" d="M115.087 389.071C115.087 392.212 111.7 394.871 107.346 394.871H47.1137C43.0015 394.871 39.373 392.212 39.373 389.071C39.373 385.929 42.7596 383.271 47.1137 383.271H107.346C111.7 383.271 115.087 385.929 115.087 389.071Z" fill="#9892A2"/>
<path d="M80.2533 320.439H73.7222V111.402C73.7222 89.4107 65.2558 68.8695 49.7744 53.4032L29.4551 32.862L34.0511 28.2704L54.3704 48.8116C71.0613 65.4862 80.2533 87.7191 80.2533 111.402V320.439Z" fill="#A59DAF"/>
<path d="M80.2519 320.439H73.7207V111.402C73.7207 87.7191 82.9128 65.4862 99.6036 48.8116L119.923 28.2704L124.519 32.862L104.2 53.4032C88.7183 68.8695 80.2519 89.4107 80.2519 111.402V320.439Z" fill="#A59DAF"/>
<path d="M39.6134 31.4121L32.1146 38.9036C29.6957 41.3202 26.0672 41.3202 23.6483 38.9036L2.60328 17.8791C0.184322 15.4624 0.184322 11.8375 2.60328 9.4209L10.102 1.9294C12.521 -0.48721 16.1495 -0.48721 18.5684 1.9294L39.6134 22.9539C42.0324 25.1289 42.0324 28.9955 39.6134 31.4121Z" fill="#A59DAF"/>
<path d="M32.5996 32.1373L28.2455 36.4872C26.7941 37.9372 24.3752 37.4539 22.44 35.5206L5.991 19.0876C4.29772 17.396 3.81394 14.7377 5.02343 13.2877L9.37754 8.9378C10.8289 7.48783 13.2479 7.97116 15.1831 9.90445L31.6321 26.3374C33.5672 28.0291 33.8091 30.6873 32.5996 32.1373Z" fill="white"/>
<path d="M112.666 31.4123L120.165 38.9038C122.584 41.3204 126.212 41.3204 128.631 38.9038L149.676 17.8793C152.095 15.4627 152.095 11.8378 149.676 9.42115L142.177 1.92965C139.758 -0.486966 136.13 -0.486966 133.711 1.92965L112.666 22.9542C110.489 25.1291 110.489 28.9957 112.666 31.4123Z" fill="#A59DAF"/>
<path d="M119.923 32.1373L124.277 36.4872C125.728 37.9372 128.147 37.4539 130.083 35.5206L146.532 19.0876C148.225 17.396 148.709 14.7377 147.499 13.2877L143.145 8.9378C141.694 7.48783 139.275 7.97116 137.34 9.90445L120.891 26.3374C118.955 28.0291 118.472 30.6873 119.923 32.1373Z" fill="white"/>
<path d="M89.4444 378.921H64.2871L68.1574 291.198C68.3993 288.299 70.5764 286.124 73.4792 286.124H80.2523C83.1551 286.124 85.3321 288.299 85.574 291.198L89.4444 378.921Z" fill="#A59DAF"/>
<path d="M97.1848 387.863H56.7881V383.996C56.7881 381.096 59.207 378.68 62.1098 378.68H91.8631C94.7658 378.68 97.1848 381.096 97.1848 383.996V387.863Z" fill="#A59DAF"/>
</svg>
