<svg width="192" height="269" viewBox="0 0 192 269" fill="none" xmlns="http://www.w3.org/2000/svg">
<path d="M106.883 163.366C106.641 164.816 106.157 166.749 105.189 168.682C105.189 168.682 104.464 170.132 103.012 172.307C102.77 172.79 102.287 173.515 101.803 174.24C100.109 177.14 97.6905 181.007 95.2715 185.115C93.0944 188.74 90.9174 192.607 88.4984 196.715C84.6281 203.481 80.5158 210.731 77.1292 217.256C73.5008 224.264 70.598 230.064 69.3886 233.931C67.9372 238.522 71.8075 249.155 72.7751 251.572C73.017 251.814 73.017 252.055 73.017 252.055C74.4684 254.23 76.4036 256.164 78.3387 258.097C81.2415 261.238 83.4186 263.413 80.2739 263.655L77.8549 262.688L73.5008 260.997L62.1317 256.647C60.1965 255.922 58.7451 254.23 58.2613 252.297L56.568 246.014L53.9072 253.264L49.7949 251.572C53.4234 242.389 49.7949 239.006 58.987 229.581C61.6479 226.923 65.0344 206.865 69.1467 191.398C70.598 185.599 72.2913 180.524 73.9846 177.14C75.6779 173.757 77.3711 171.099 79.3063 168.441C79.5482 167.957 80.032 167.474 80.2739 166.991C82.9348 163.366 85.5956 160.466 87.2889 158.532C88.9822 156.841 89.9498 156.116 89.9498 156.116C98.4162 153.216 108.092 154.666 106.883 163.366Z" fill="#F0A073"/>
<path d="M58.5007 229.581C58.5007 229.581 58.9845 229.581 59.2264 229.823C61.6453 231.273 63.0967 233.931 63.3386 236.589L64.0643 243.597C64.3062 246.739 66.4833 249.397 69.386 250.364L72.7726 251.572C72.7726 251.814 72.7726 251.814 72.7726 251.814C76.8848 257.614 84.8674 262.93 79.7876 263.172L61.6453 256.164C59.7102 255.439 58.2588 253.747 57.775 251.814L56.0817 245.531L53.4208 252.781L49.3086 251.089C52.937 242.389 49.3086 238.764 58.5007 229.581Z" fill="#C21E1D"/>
<path d="M33.8264 114.792L71.8041 133.883C71.8041 133.883 70.1108 140.65 69.6271 140.65C57.2903 138.475 32.1331 130.983 26.0857 126.875C18.8288 122.283 25.36 109.959 33.8264 114.792Z" fill="#456F96"/>
<path d="M51.4839 10.6355C50.5163 7.97725 50.0325 4.83563 47.8555 3.144C53.9029 2.90234 59.7084 7.25225 61.6436 12.8105C62.3693 15.2271 62.6112 17.8853 64.0625 19.8186C58.4989 19.577 53.4191 15.9521 51.4839 10.6355Z" fill="#21201D"/>
<path d="M49.5504 37.2182L48.8247 40.8432L47.8571 44.7097L46.8895 49.3013L45.922 53.8928L44.7125 60.4177L27.2959 48.093L33.8271 23.2019L49.5504 37.2182Z" fill="#FFAE80"/>
<path d="M44.4693 53.8928C50.0329 76.8506 61.1601 76.1256 62.6115 88.9337C63.5791 98.3584 53.6614 101.983 53.6614 101.983C50.7586 115.275 48.5815 126.874 49.5491 135.574C49.5491 135.574 21.2472 130.258 19.312 129.774C23.9081 116.483 15.6836 101.983 15.6836 77.5756C15.6836 64.5259 27.7784 46.4012 27.7784 46.4012C27.7784 46.4012 43.7436 50.2678 44.4693 53.8928Z" fill="#FFAE80"/>
<path d="M63.3385 88.9339C63.3385 89.4173 63.3385 90.1422 63.3385 90.6256C63.0966 98.842 53.6626 101.984 53.6626 101.984C53.6626 102.709 53.6626 103.192 53.6626 103.917C53.6626 104.642 53.6626 105.125 53.6626 105.609C53.6626 107.542 53.4207 109.475 53.1788 111.408C52.937 115.275 52.4532 118.658 51.9694 121.8C51.4856 125.666 50.7599 129.533 50.518 132.916C50.518 133.4 50.518 133.883 50.2761 134.366C50.2761 134.366 49.5504 134.366 48.3409 134.125C45.6801 133.641 40.3583 132.916 35.0366 132.191C34.7947 132.191 34.3109 132.191 34.069 131.95C27.054 130.983 20.2809 130.016 19.5552 129.775C19.7971 128.808 20.2809 127.841 20.2809 126.875C20.5228 126.391 20.5228 125.908 20.5228 125.425C20.7647 123.25 21.0066 121.075 20.7647 118.9C20.7647 118.175 20.7647 117.45 20.7647 116.725C20.5228 112.858 19.5552 108.509 18.8295 103.917C17.8619 98.842 16.8943 93.2839 16.4105 86.759C16.4105 85.7924 16.1687 84.8257 16.1687 83.859C16.1687 81.9257 15.9268 79.7508 15.9268 77.5759C15.9268 64.7678 23.9093 52.9264 24.3931 52.2014C24.3931 52.2014 27.054 53.1681 29.9568 54.1347C29.9568 54.1347 42.7773 57.5179 55.114 74.1926C58.9844 79.0258 62.6128 82.1674 63.3385 88.9339Z" fill="#5589B9"/>
<path opacity="0.4" d="M47.8579 44.7091L46.8903 49.3007L45.9227 53.8923C43.7457 52.4423 40.3591 49.784 39.3915 48.334C36.4888 43.9841 35.5212 39.3926 35.2793 34.076C37.6983 38.1843 42.5362 41.5675 46.6484 43.9841C47.1322 44.4675 47.616 44.4675 47.8579 44.7091Z" fill="#FFAE80"/>
<path d="M61.645 29.0017C59.7098 26.3434 58.5004 24.8935 58.0166 22.7185C64.3059 -8.21412 0.928992 1.93565 24.8767 34.5599L30.9242 33.8349C34.0688 41.5681 39.1486 46.4014 49.0664 48.093C52.4529 47.8513 55.3557 48.093 57.7747 45.6764C59.226 43.5014 59.9517 40.1181 59.7098 35.0432C59.7098 34.0766 60.1936 33.11 61.1612 32.6266C61.8869 31.9017 62.8545 30.6933 61.645 29.0017Z" fill="#FFAE80"/>
<path d="M27.2959 48.0928C25.3607 45.4345 14.2335 37.943 13.9916 23.2017C13.2659 -7.24765 55.8397 -3.38109 55.8397 10.1519C55.8397 10.1519 55.5978 7.97701 49.3085 18.3684C45.6801 24.41 39.3908 25.135 37.4556 33.3514C33.8271 48.0928 27.2959 48.0928 27.2959 48.0928Z" fill="#21201D"/>
<path d="M105.428 267.039L86.0758 264.622C84.1406 264.38 82.2054 263.172 81.2379 261.48L78.0932 255.922L77.8513 258.097L77.3675 262.689V263.655L73.0134 263.172C73.0134 262.447 73.2553 261.722 73.2553 260.997C73.4972 257.13 72.7715 254.472 72.7715 251.572C72.7715 248.431 73.2553 245.047 76.6418 239.489C77.8513 237.314 77.6094 227.889 77.3675 217.256C77.1256 210.731 76.8837 203.723 77.1256 197.682C77.1256 192.607 77.6094 188.257 78.3351 185.115C78.8189 183.424 79.3027 181.49 79.7865 180.04C80.5122 177.866 81.2378 175.932 81.9635 173.999C82.4473 172.791 82.9311 171.582 83.4149 170.374C84.6244 167.716 85.8339 165.782 86.5596 164.091C87.7691 162.157 88.4948 160.949 88.4948 160.949C96.4773 155.874 106.153 154.666 107.121 163.366C107.363 164.816 107.121 166.749 106.879 168.924C106.879 168.924 106.637 170.132 105.911 171.824C105.669 172.791 105.186 173.757 104.944 174.966C103.976 177.865 103.009 181.732 101.557 186.082C100.59 188.982 99.622 192.365 98.8963 195.748C94.0584 212.665 88.7367 232.723 88.2529 240.939C87.7691 246.497 96.2354 257.855 96.2354 257.855C101.315 262.447 110.265 265.589 105.428 267.039Z" fill="#FFAE80"/>
<path d="M76.3994 239.488C76.3994 239.488 76.8832 239.488 77.367 239.73C80.0279 240.697 81.9631 242.63 82.9306 245.288L85.3496 252.055C86.3172 254.955 88.9781 257.13 92.1227 257.371L95.7512 257.613C95.7512 257.854 95.9931 257.854 95.9931 257.854C101.315 262.446 110.507 265.588 105.669 267.279L86.3172 264.863C84.382 264.621 82.4469 263.413 81.4793 261.721L78.3346 256.163L77.367 263.896L73.0129 263.413C74.2224 253.263 69.8682 250.846 76.3994 239.488Z" fill="#EA4A49"/>
<path d="M107.121 171.581C106.396 175.931 104.944 180.764 103.251 186.323C102.767 186.323 102.525 186.323 102.042 186.081C101.8 186.081 101.558 186.081 101.316 186.081C99.3808 185.839 97.2037 185.356 95.2685 185.114C89.9468 183.906 84.6251 182.214 79.3034 180.039C77.3682 179.314 75.433 178.348 73.4978 177.381C70.837 176.173 68.1761 174.481 65.5153 173.031C65.5153 173.031 34.0687 173.515 21.0063 170.373C15.6846 169.165 11.8142 164.815 10.8466 159.498C9.87906 154.182 9.39525 150.073 11.3304 144.032C11.8142 142.098 12.7818 139.924 13.7494 137.507C15.2008 134.124 17.3778 130.74 20.2806 127.115H21.2482L34.0687 129.774L48.5825 132.674C51.7272 133.157 89.7049 142.582 102.284 152.732C103.251 153.457 104.219 154.423 104.944 155.148C105.912 156.357 106.638 157.565 107.121 158.773C108.331 162.156 108.089 166.506 107.121 171.581Z" fill="#EA4A49"/>
<path d="M40.6002 30.21C41.3259 33.3516 41.8097 35.2849 39.8746 35.7682C37.6975 36.2516 34.069 34.0766 33.3433 30.935C32.6176 27.7934 34.3109 25.6184 36.488 25.1351C38.6651 24.6518 39.8745 27.0684 40.6002 30.21Z" fill="#FFAE80"/>
<path d="M39.8733 34.8016C40.1152 35.5265 39.6314 36.4931 38.6638 36.7348C37.9381 36.9764 36.9705 36.4931 36.7286 35.5265C36.4867 34.8015 36.9705 33.8349 37.9381 33.5933C38.9057 33.5933 39.6314 34.0766 39.8733 34.8016Z" fill="white"/>
<path opacity="0.3" d="M63.3378 90.6255C63.0959 98.842 53.9038 101.984 53.9038 101.984C53.9038 102.709 53.9038 103.192 53.9038 103.917C53.9038 104.4 53.9038 105.125 53.9038 105.609C53.9038 107.542 53.6619 109.475 53.6619 111.408C53.1781 115.275 52.9362 118.658 52.4524 121.8C51.9686 125.666 51.243 129.533 51.0011 132.916L48.824 132.433L34.3102 129.533L21.4897 126.875C21.2478 126.391 21.0059 125.908 20.764 125.425C21.0059 123.25 21.2478 121.075 21.0059 118.9C21.0059 118.175 21.0059 117.45 21.0059 116.725C20.764 112.858 19.7964 108.508 19.0707 103.917C18.1031 98.842 17.1355 93.2838 16.6518 86.759C16.6518 85.7923 16.4099 84.8257 16.4099 83.859C16.4099 81.9257 16.168 79.7508 16.168 77.5759C16.168 64.7678 24.1506 52.9264 24.6343 52.2014C16.4099 74.4343 28.0209 79.2675 40.5995 83.1341L48.824 98.8421C54.3876 98.3587 59.7093 95.2171 63.3378 90.6255Z" fill="#456F96"/>
<path opacity="0.5" d="M90.9149 145.966C90.9149 145.966 51.4858 149.349 34.7949 131.949C30.1989 127.358 23.9096 127.841 21.0068 126.874L33.8274 129.533L48.3412 132.432C51.4858 132.916 69.1443 136.541 90.9149 145.966Z" fill="#EA4A49"/>
<path d="M38.181 71.2923L51.2434 116.725C54.63 125.908 40.8419 132.674 36.7296 120.833L21.2483 76.3672C16.8942 60.9009 34.3107 58.7259 38.181 71.2923Z" fill="#5589B9"/>
<path opacity="0.5" d="M102.042 186.082C101.8 186.082 101.558 186.082 101.316 186.082C99.3807 185.84 97.2037 185.357 95.2685 185.115C89.9468 183.907 84.6251 182.215 79.3033 180.04C77.3682 179.315 75.433 178.348 73.4978 177.382C70.837 176.173 68.1761 174.482 65.5152 173.032C65.5152 173.032 34.0687 173.515 21.0063 170.374C15.6846 169.165 11.8142 164.815 10.8466 159.499C9.87906 154.182 9.39526 150.074 11.3304 144.032C16.4103 160.707 20.0387 176.173 70.1113 163.365C80.029 178.348 102.042 186.082 102.042 186.082Z" fill="#EA4A49"/>
<path d="M63.8607 183.633V257.34C63.8607 263.14 59.0228 267.973 53.2172 267.973H10.6435C4.83794 267.973 0 263.14 0 257.34V183.633C0 177.833 4.83794 173 10.6435 173H53.2172C59.0228 173 63.8607 177.592 63.8607 183.633Z" fill="#F9B233"/>
<path d="M63.6188 191.85H0V197.65H63.6188V191.85Z" fill="#5E4A4C"/>
<path d="M16.9338 173H13.0635V267.973H16.9338V173Z" fill="#5E4A4C"/>
<path d="M51.5256 173H47.6553V260.723H51.5256V173Z" fill="#5E4A4C"/>
<path d="M181.42 267.74H85.6292C80.7912 267.74 76.9209 263.873 76.9209 259.04V199.108C76.9209 194.275 80.7912 190.408 85.6292 190.408H181.42C186.258 190.408 190.128 194.275 190.128 199.108V259.04C190.37 263.873 186.5 267.74 181.42 267.74Z" fill="black"/>
<path d="M145.622 185.333C137.881 182.191 129.173 182.191 121.432 185.333C119.981 185.816 118.529 185.333 117.804 184.124C117.078 182.916 117.804 181.224 119.497 180.499C128.447 176.875 138.607 176.875 147.557 180.499C149.25 181.224 149.976 182.916 149.25 184.124C148.525 185.333 147.073 185.816 145.622 185.333Z" fill="black"/>
<path d="M120.704 190.166H118.769V183.641C118.769 183.158 119.252 182.674 119.736 182.674C120.22 182.674 120.704 183.158 120.704 183.641V190.166V190.166Z" fill="#DADADA"/>
<path d="M148.524 190.166H146.589V183.641C146.589 183.158 147.073 182.674 147.556 182.674C148.04 182.674 148.524 183.158 148.524 183.641V190.166V190.166Z" fill="#DADADA"/>
<path d="M89.0166 201.524C89.0166 202.008 88.5328 202.491 88.049 202.491H76.9217C76.4379 202.491 75.9541 202.008 75.9541 201.524V197.899C75.9541 193.308 79.8245 189.441 84.4205 189.441H88.049C88.5328 189.441 89.0166 189.925 89.0166 190.408V201.524Z" fill="#DADADA"/>
<path d="M178.036 201.524C178.036 202.008 178.52 202.491 179.004 202.491H190.131C190.615 202.491 191.099 202.008 191.099 201.524V197.899C191.099 193.308 187.228 189.441 182.632 189.441H179.004C178.52 189.441 178.036 189.925 178.036 190.408V201.524Z" fill="#DADADA"/>
<path d="M178.036 256.381C178.036 255.898 178.52 255.414 179.004 255.414H190.131C190.615 255.414 191.099 255.898 191.099 256.381V260.006C191.099 264.598 187.228 268.464 182.632 268.464H179.004C178.52 268.464 178.036 267.981 178.036 267.497V256.381Z" fill="#DADADA"/>
<path d="M89.0166 256.381C89.0166 255.898 88.5328 255.414 88.049 255.414H76.9217C76.4379 255.414 75.9541 255.898 75.9541 256.381V260.006C75.9541 264.598 79.8245 268.464 84.4205 268.464H88.049C88.5328 268.464 89.0166 267.981 89.0166 267.497V256.381Z" fill="#DADADA"/>
<path d="M94.0965 213.84H71.3583V208.524C71.3583 206.349 69.665 204.657 67.4879 204.657H51.2809C49.1038 204.657 47.4105 206.349 47.4105 208.524V213.84H24.6722C19.3505 213.84 15.2383 217.949 15.2383 223.265V258.306C15.2383 263.623 19.3505 267.731 24.6722 267.731H94.3384C99.6602 267.731 103.772 263.623 103.772 258.306V223.265C103.531 218.19 99.4183 213.84 94.0965 213.84ZM51.039 208.524C51.039 208.282 51.2809 208.282 51.2809 208.282H67.4879C67.7298 208.282 67.7298 208.524 67.7298 208.524V213.84H51.039V208.524V208.524Z" fill="#EA4A49"/>
<path d="M39.6694 213.841H31.9287V267.731H39.6694V213.841Z" fill="#FDFDFD"/>
<path d="M86.8393 213.841H79.0986V267.731H86.8393V213.841Z" fill="#FDFDFD"/>
<path d="M40.8794 229.79H30.7197V220.366H40.8794V229.79ZM33.1387 227.374H38.4604V222.782H33.1387V227.374Z" fill="#231F20"/>
<path d="M88.0493 229.79H77.8896V220.366H88.0493V229.79ZM80.3086 227.374H85.6303V222.782H80.3086V227.374Z" fill="#231F20"/>
</svg>
